<?xml version="1.0" encoding="UTF-8" standalone="no"?>
<!-- Created with Inkscape (http://www.inkscape.org/) -->

<svg
   xmlns:dc="http://purl.org/dc/elements/1.1/"
   xmlns:cc="http://creativecommons.org/ns#"
   xmlns:rdf="http://www.w3.org/1999/02/22-rdf-syntax-ns#"
   xmlns:svg="http://www.w3.org/2000/svg"
   xmlns="http://www.w3.org/2000/svg"
   xmlns:sodipodi="http://sodipodi.sourceforge.net/DTD/sodipodi-0.dtd"
   xmlns:inkscape="http://www.inkscape.org/namespaces/inkscape"
   width="511.11688"
   height="491.92398"
   id="svg2"
   version="1.1"
   inkscape:version="0.47 r22583"
   sodipodi:docname="blackCat.svg">
  <defs
     id="defs4">
    <inkscape:perspective
       sodipodi:type="inkscape:persp3d"
       inkscape:vp_x="0 : 526.18109 : 1"
       inkscape:vp_y="0 : 1000 : 0"
       inkscape:vp_z="744.09448 : 526.18109 : 1"
       inkscape:persp3d-origin="372.04724 : 350.78739 : 1"
       id="perspective10" />
    <inkscape:perspective
       id="perspective2850"
       inkscape:persp3d-origin="0.5 : 0.33333333 : 1"
       inkscape:vp_z="1 : 0.5 : 1"
       inkscape:vp_y="0 : 1000 : 0"
       inkscape:vp_x="0 : 0.5 : 1"
       sodipodi:type="inkscape:persp3d" />
    <inkscape:perspective
       id="perspective2876"
       inkscape:persp3d-origin="0.5 : 0.33333333 : 1"
       inkscape:vp_z="1 : 0.5 : 1"
       inkscape:vp_y="0 : 1000 : 0"
       inkscape:vp_x="0 : 0.5 : 1"
       sodipodi:type="inkscape:persp3d" />
    <inkscape:perspective
       id="perspective2909"
       inkscape:persp3d-origin="0.5 : 0.33333333 : 1"
       inkscape:vp_z="1 : 0.5 : 1"
       inkscape:vp_y="0 : 1000 : 0"
       inkscape:vp_x="0 : 0.5 : 1"
       sodipodi:type="inkscape:persp3d" />
    <inkscape:perspective
       id="perspective3010"
       inkscape:persp3d-origin="0.5 : 0.33333333 : 1"
       inkscape:vp_z="1 : 0.5 : 1"
       inkscape:vp_y="0 : 1000 : 0"
       inkscape:vp_x="0 : 0.5 : 1"
       sodipodi:type="inkscape:persp3d" />
    <inkscape:perspective
       id="perspective3056"
       inkscape:persp3d-origin="0.5 : 0.33333333 : 1"
       inkscape:vp_z="1 : 0.5 : 1"
       inkscape:vp_y="0 : 1000 : 0"
       inkscape:vp_x="0 : 0.5 : 1"
       sodipodi:type="inkscape:persp3d" />
  </defs>
  <sodipodi:namedview
     id="base"
     pagecolor="#ffffff"
     bordercolor="#666666"
     borderopacity="1.0"
     inkscape:pageopacity="0.0"
     inkscape:pageshadow="2"
     inkscape:zoom="0.98994949"
     inkscape:cx="109.86426"
     inkscape:cy="243.25098"
     inkscape:document-units="px"
     inkscape:current-layer="layer1"
     showgrid="false"
     inkscape:window-width="1440"
     inkscape:window-height="843"
     inkscape:window-x="0"
     inkscape:window-y="30"
     inkscape:window-maximized="1" />
  <metadata
     id="metadata7">
    <rdf:RDF>
      <cc:Work
         rdf:about="">
        <dc:format>image/svg+xml</dc:format>
        <dc:type
           rdf:resource="http://purl.org/dc/dcmitype/StillImage" />
        <dc:title></dc:title>
      </cc:Work>
    </rdf:RDF>
  </metadata>
  <g
     inkscape:label="Layer 1"
     inkscape:groupmode="layer"
     id="layer1"
     transform="translate(-194.96959,-369.50922)">
    <path
       style="fill:#000000;stroke:#000000;stroke-width:1px;stroke-linecap:butt;stroke-linejoin:miter;stroke-opacity:1"
       d="m 284.83031,781.87492 c 1.08576,-14.99551 4.41109,-9.70667 6.5446,-17.02577 15.41609,-52.88545 -25.23677,-100.82182 -4.34678,-151.77608 -9.78728,0.55605 -24.16302,-23.43253 -23.0683,-43.83326 1.09721,-20.44729 13.37419,-40.07075 24.04017,-65.16334 -45.32168,-109.63461 -22.30511,-67.99392 41.93779,-42.26645 67.17487,-45.72152 80.60104,-6.48028 92.20318,-14.40771 57.3152,-38.15489 43.9559,-57.60791 52.58793,31.32761 95.20865,77.82247 168.78261,157.10206 111.28557,273.67744 62.02439,5.99799 74.03619,-82.08785 56.39238,-155.8118 -12.3948,-35.30948 22.53657,-50.17086 25.55196,61.15082 -11.77179,90.74948 -35.58714,129.89727 -95.69583,136.85971 4.47123,3.61722 -84.89905,25.50382 -141.92774,12.81939 -4.31247,-0.95919 -12.49324,-10.45271 6.85971,-20.52143 7.19311,-3.74235 -15.42377,-11.28321 -25.8996,-9.48485 -12.37684,2.1247 -13.22623,30.88792 -14.89072,31.53221 -10.85851,4.20311 -18.87444,4.94806 -37.7235,0.50346 -3.63598,-0.85736 -3.75494,-11.04759 3.81672,-18.82474 6.52067,-6.69764 -11.51127,-19.20212 -14.6894,-22.52898 -6.35625,-6.65371 -17.79803,-10.77468 -21.12326,-8.84107 -8.92572,5.19027 7.85667,35.03979 -41.28568,23.32455"
       id="path2816"
       sodipodi:nodetypes="cscsccccccccssssssssc" />
    <path
       style="fill:#ffffff;stroke:none"
       d="m 386.40366,510.16773 c 14.7158,-1.78518 16.5891,-10.28262 -1.19259,-6.34213 -15.33034,-2.70995 -15.61467,7.01746 1.19259,6.34213 z"
       id="path2931"
       sodipodi:nodetypes="ccc" />
    <path
       style="fill:none;stroke:#333333;stroke-width:1px;stroke-linecap:butt;stroke-linejoin:miter;stroke-opacity:1"
       d="m 374.28182,508.94072 c 3.35227,7.55381 16.67436,8.46878 21.71828,2.52581"
       id="path2955"
       sodipodi:nodetypes="cc" />
    <path
       style="fill:none;stroke:#333333;stroke-width:1px;stroke-linecap:butt;stroke-linejoin:miter;stroke-opacity:1"
       d="m 373.27167,501.86965 c 1.52947,-12.05887 24.88421,-11.45513 26.26396,4.8e-4"
       id="path2977"
       sodipodi:nodetypes="cc" />
    <path
       sodipodi:type="arc"
       style="fill:#000000;stroke:none"
       id="path3000"
       sodipodi:cx="388.40366"
       sodipodi:cy="510.41534"
       sodipodi:rx="2.0203052"
       sodipodi:ry="5.0507627"
       d="m 390.42396,510.41534 a 2.0203052,5.0507627 0 1 1 -4.04061,0 2.0203052,5.0507627 0 1 1 4.04061,0 z"
       transform="translate(-6,-4)" />
    <path
       style="fill:#ffffff;stroke:none"
       d="m 306.33185,507.47601 c -11.67653,-1.41648 -13.16293,-8.15894 0.94629,-5.03228 12.16415,-2.15026 12.38976,5.56814 -0.94629,5.03228 z"
       id="path2931-8"
       sodipodi:nodetypes="ccc" />
    <path
       style="fill:none;stroke:#333333;stroke-width:0.79346919px;stroke-linecap:butt;stroke-linejoin:miter;stroke-opacity:1"
       d="m 315.95017,506.50242 c -2.65992,5.99371 -13.23059,6.71972 -17.23279,2.00415"
       id="path2955-2"
       sodipodi:nodetypes="cc" />
    <path
       style="fill:none;stroke:#333333;stroke-width:0.79346919px;stroke-linecap:butt;stroke-linejoin:miter;stroke-opacity:1"
       d="m 316.75169,500.89175 c -1.21359,-9.56835 -19.74485,-9.08931 -20.83965,3.8e-4"
       id="path2977-9"
       sodipodi:nodetypes="cc" />
    <path
       sodipodi:type="arc"
       style="fill:#000000;stroke:none"
       id="path3000-0"
       sodipodi:cx="388.40366"
       sodipodi:cy="510.41534"
       sodipodi:rx="2.0203052"
       sodipodi:ry="5.0507627"
       d="m 390.42396,510.41534 a 2.0203052,5.0507627 0 1 1 -4.04061,0 2.0203052,5.0507627 0 1 1 4.04061,0 z"
       transform="matrix(-0.7934692,0,0,0.7934692,617.69208,99.49976)" />
    <path
       style="fill:none;stroke:#808080;stroke-width:2;stroke-linecap:butt;stroke-linejoin:miter;stroke-opacity:1"
       d="m 314.19805,561.48896 c 1.23838,37.74692 67.01212,47.41953 81.18629,0.62548"
       id="path3033"
       sodipodi:nodetypes="cc" />
    <path
       style="fill:none;stroke:#808080;stroke-width:2;stroke-linecap:butt;stroke-linejoin:miter;stroke-opacity:1"
       d="m 313.50547,561.33075 c -11.74305,24.70203 -31.45505,34.61718 -39.06155,0.63398"
       id="path3033-2"
       sodipodi:nodetypes="cc" />
    <path
       style="fill:#999999;stroke:#000000"
       d="m 305.13089,530.53377 c 9.83942,-2.84354 21.00332,-3.12472 30.27646,1.70335 3.28766,1.88616 6.54155,4.54132 7.85621,8.1924 1.07266,4.39184 -2.53683,9.09591 -7.08625,8.98808 -3.37965,0.0956 -6.38045,-2.18993 -7.78901,-5.155 -2.0512,-2.0457 -6.50329,-0.13 -4.45463,2.90348 0.94875,3.45139 5.19179,4.80359 6.02543,7.9591 0.46561,4.37435 -3.85727,7.37783 -7.77314,7.84031 -5.09016,0.90576 -11.03955,-0.0937 -14.65058,-4.04275 -3.11205,-4.01653 -1.65255,-9.31817 -1.89602,-13.98458 0.44315,-2.53576 -1.3752,-6.01445 -4.13386,-3.74051 -1.27503,1.39629 -3.74301,2.93169 -3.67691,-0.30138 2.0513,-5.3404 3.07702,-6.62562 7.3023,-10.3625 z"
       id="path2827"
       sodipodi:nodetypes="ccccccccccccc" />
    <path
       style="fill:none;stroke:#808080;stroke-width:1px;stroke-linecap:butt;stroke-linejoin:miter;stroke-opacity:1"
       d="m 288.92393,546.31637 c -21.16554,-7.85832 -47.85169,-8.95816 -65.65991,7.07107"
       id="path3091" />
    <path
       style="fill:none;stroke:#808080;stroke-width:1px;stroke-linecap:butt;stroke-linejoin:miter;stroke-opacity:1"
       d="m 354.58385,554.39759 c 27.06579,-11.01869 55.70101,9.43805 68.69037,32.3249"
       id="path3112" />
    <path
       style="fill:none;stroke:#808080;stroke-width:1px;stroke-linecap:butt;stroke-linejoin:miter;stroke-opacity:1"
       d="m 288.92393,564.49911 c -23.0683,-3.55302 -44.23175,13.18978 -51.51778,34.34522"
       id="path3135" />
    <path
       style="fill:none;stroke:#808080;stroke-width:1px;stroke-linecap:butt;stroke-linejoin:miter;stroke-opacity:1"
       d="m 345.49248,568.53972 c 19.74101,9.68513 31.49426,32.90005 28.28434,54.54824"
       id="path3160" />
    <path
       style="fill:none;stroke:#808080;stroke-width:1.137712px;stroke-linecap:butt;stroke-linejoin:miter;stroke-opacity:1"
       d="m 274.69263,555.47635 c -20.8361,-0.31823 -43.07621,2.53762 -59.46128,12.9945"
       id="path3185" />
    <path
       style="fill:none;stroke:#808080;stroke-width:1.15062094px;stroke-linecap:butt;stroke-linejoin:miter;stroke-opacity:1"
       d="m 369.11687,569.69105 c 18.49383,9.32719 27.19643,31.5629 39.62433,48.20496"
       id="path3209" />
  </g>
</svg>
